HIERARCHY
ROOT SpineBase
{
  OFFSET 0.000000 0.000000 0.000000
  CHANNELS 6 Xposition Yposition Zposition Zrotation Xrotation Yrotation
  JOINT SpineMid
  {
    OFFSET 0.000000 30.765428 0.000000
    CHANNELS 3 Zrotation Xrotation Yrotation
    JOINT SpineShoulder
    {
      OFFSET 0.076012 22.828015 -0.730920
      CHANNELS 3 Zrotation Xrotation Yrotation
      JOINT Neck
      {
        OFFSET 0.031723 7.530681 -0.552808
        CHANNELS 3 Zrotation Xrotation Yrotation
        JOINT Head
        {
          OFFSET -0.486435 14.970529 -2.736483
          CHANNELS 3 Zrotation Xrotation Yrotation
          End Site
          {
            OFFSET 0 0 0
          }
        }
      }
      JOINT ShoulderLeft
      {
        OFFSET -18.739132 -2.241519 3.093827
        CHANNELS 3 Zrotation Xrotation Yrotation
        JOINT ElbowLeft
        {
          OFFSET -6.051500 -25.770812 2.069542
          CHANNELS 3 Zrotation Xrotation Yrotation
          JOINT WristLeft
          {
            OFFSET -0.507372 -26.551355 -3.043331
            CHANNELS 3 Zrotation Xrotation Yrotation
            JOINT HandLeft
            {
              OFFSET 0.194974 -8.379540 -1.198161
              CHANNELS 3 Zrotation Xrotation Yrotation
              JOINT HandTipLeft
              {
                OFFSET 0.999714 -8.370861 -0.968183
                CHANNELS 3 Zrotation Xrotation Yrotation
                End Site
                {
                  OFFSET 0 0 0
                }
              }
              JOINT ThumbLeft
              {
                OFFSET 3.131345 -1.787297 -3.266086
                CHANNELS 3 Zrotation Xrotation Yrotation
                End Site
                {
                  OFFSET 0 0 0
                }
              }
            }
          }
        }
      }
      JOINT ShoulderRight
      {
        OFFSET 18.569257 -3.263916 -2.936914
        CHANNELS 3 Zrotation Xrotation Yrotation
        JOINT ElbowRight
        {
          OFFSET 5.559522 -25.952265 1.707582
          CHANNELS 3 Zrotation Xrotation Yrotation
          JOINT WristRight
          {
            OFFSET 3.010498 -26.324961 -3.697820
            CHANNELS 3 Zrotation Xrotation Yrotation
            JOINT HandRight
            {
              OFFSET 1.224287 -7.993522 -1.939609
              CHANNELS 3 Zrotation Xrotation Yrotation
              JOINT HandTipRight
              {
                OFFSET 1.284330 -8.601274 0.581835
                CHANNELS 3 Zrotation Xrotation Yrotation
                End Site
                {
                  OFFSET 0 0 0
                }
              }
              JOINT ThumbRight
              {
                OFFSET 3.386083 -0.300883 -4.733983
                CHANNELS 3 Zrotation Xrotation Yrotation
                End Site
                {
                  OFFSET 0 0 0
                }
              }
            }
          }
        }
      }
    }
  }
  JOINT HipLeft
  {
    OFFSET -6.096147 0.107974 -2.462503
    CHANNELS 3 Zrotation Xrotation Yrotation
    JOINT KneeLeft
    {
      OFFSET 0.363816 -41.517468 7.551370
      CHANNELS 3 Zrotation Xrotation Yrotation
      JOINT AnkleLeft
      {
        OFFSET 2.527515 -36.859613 7.149576
        CHANNELS 3 Zrotation Xrotation Yrotation
        JOINT FootLeft
        {
          OFFSET -1.327314 -4.531147 -14.263197
          CHANNELS 3 Zrotation Xrotation Yrotation
          End Site
          {
            OFFSET 0 0 0
          }
        }
      }
    }
  }
  JOINT HipRight
  {
    OFFSET 6.271084 1.090389 -4.518432
    CHANNELS 3 Zrotation Xrotation Yrotation
    JOINT KneeRight
    {
      OFFSET 7.092435 -40.926270 4.740793
      CHANNELS 3 Zrotation Xrotation Yrotation
      JOINT AnkleRight
      {
        OFFSET -0.185406 -35.828321 8.456012
        CHANNELS 3 Zrotation Xrotation Yrotation
        JOINT FootRight
        {
          OFFSET -1.470368 -4.540466 -14.267962
          CHANNELS 3 Zrotation Xrotation Yrotation
          End Site
          {
            OFFSET 0 0 0
          }
        }
      }
    }
  }
}
MOTION
Frames: 14
Frame Time: 0.033333
-8.140522 83.243886 356.895878 0.091267 -0.181871 8.934957 -0.061913 0.193839 -8.934708 -0.000000 0.000000 0.000000 -0.000000 0.000000 0.000000 0.000000 0.000000 0.000000 -0.000000 0.000000 0.000000 -0.000000 0.000000 0.000000 -1.847093 0.776776 0.294553 1.970920 0.622774 -0.115139 0.000000 0.000000 0.000000 0.000000 0.000000 0.000000 -0.000000 0.000000 0.000000 -0.000000 0.000000 0.000000 1.536825 0.502430 -0.301774 -7.380793 19.007707 3.867491 0.000000 0.000000 0.000000 0.000000 0.000000 0.000000 -0.061913 0.193839 -8.934708 0.507536 -0.635835 0.057582 -0.506928 0.636320 -0.051951 0.000000 0.000000 0.000000 -0.061913 0.193839 -8.934708 -0.000000 0.000000 0.000000 -0.000000 0.000000 0.000000 0.000000 0.000000 0.000000
-8.140359 83.256311 356.850243 0.102897 -0.170145 9.142132 -0.074557 0.184333 -9.141860 -0.000000 0.000000 0.000000 -0.000000 0.000000 0.000000 0.000000 0.000000 0.000000 -0.000000 0.000000 0.000000 -0.000000 0.000000 0.000000 -2.079030 1.306326 0.350982 1.918167 -0.376195 -0.175095 0.000000 0.000000 0.000000 0.000000 0.000000 0.000000 -0.000000 0.000000 0.000000 1.156529 1.513943 -0.004585 -1.967006 -4.748607 -0.372618 -7.924442 22.824301 4.760073 0.000000 0.000000 0.000000 0.000000 0.000000 0.000000 -0.074557 0.184333 -9.141860 -0.000000 0.000000 0.000000 -0.000000 0.000000 0.000000 0.000000 0.000000 0.000000 -0.074557 0.184333 -9.141860 -0.000000 0.000000 0.000000 0.604208 -4.704878 -0.401967 0.000000 0.000000 0.000000
-8.180466 83.292755 356.794528 0.070999 -0.143617 9.426744 -0.046518 0.153306 -9.426592 -0.000000 0.000000 0.000000 -0.000000 0.000000 0.000000 0.000000 0.000000 0.000000 -0.000000 0.000000 0.000000 -0.000000 0.000000 0.000000 -2.244414 1.777786 0.396457 1.107795 -0.804631 -0.104231 0.000000 0.000000 0.000000 0.000000 0.000000 0.000000 1.053216 0.151701 0.100215 2.125723 2.789627 -0.284130 -0.754076 -7.683068 -1.066017 -14.404263 20.324167 5.754991 0.000000 0.000000 0.000000 0.000000 0.000000 0.000000 -0.046518 0.153306 -9.426592 -0.000000 0.000000 0.000000 -0.000000 0.000000 0.000000 0.000000 0.000000 0.000000 -0.046518 0.153306 -9.426592 -0.000000 0.000000 0.000000 0.706448 -5.816348 -0.356547 0.000000 0.000000 0.000000
-8.240501 83.335425 356.726168 0.026307 -0.109913 9.729139 -0.007354 0.112777 -9.729107 -0.000000 0.000000 0.000000 -0.000000 0.000000 0.000000 0.000000 0.000000 0.000000 -0.000000 0.000000 0.000000 -0.000000 0.000000 0.000000 -2.388009 1.880755 0.423679 0.797575 -1.942418 -0.222025 0.000000 0.000000 0.000000 0.000000 0.000000 0.000000 2.397238 0.359760 0.226327 3.917242 4.719788 -0.777831 1.356669 -8.893755 -1.467648 -15.857597 14.338093 5.126852 0.000000 0.000000 0.000000 0.000000 0.000000 0.000000 -0.007354 0.112777 -9.729107 -0.000000 0.000000 0.000000 -0.000000 0.000000 0.000000 0.000000 0.000000 0.000000 -0.791299 -0.214396 -9.891847 0.716106 0.456962 0.159189 0.713172 -6.197501 -0.233800 0.000000 0.000000 0.000000
-8.355524 83.401672 356.640034 -0.058983 -0.063328 10.083423 0.069160 0.052023 -10.083487 -0.000000 0.000000 0.000000 0.762023 0.383565 0.149265 0.000000 0.000000 0.000000 -0.000000 0.000000 0.000000 -0.000000 0.000000 0.000000 -2.606164 2.289361 0.476956 0.647461 -3.244940 -0.356422 0.000000 0.000000 0.000000 0.000000 0.000000 0.000000 4.661234 0.830895 0.447356 5.886796 6.659325 -1.648312 1.525262 -8.389640 -1.409444 -13.842497 11.108709 4.756738 0.000000 0.000000 0.000000 0.000000 0.000000 0.000000 -1.003861 -0.313716 -10.271101 2.020737 0.266811 0.352764 -1.028275 0.290712 -0.177110 0.000000 0.000000 0.000000 -0.820262 -0.170073 -10.246364 0.835747 0.376741 0.159213 0.611769 -5.827097 -0.003163 0.000000 0.000000 0.000000
-8.505779 83.486010 356.547965 -0.162088 -0.008714 10.440365 0.160983 -0.020802 -10.440348 -0.000000 0.000000 0.000000 1.249368 0.807932 0.246055 0.000000 0.000000 0.000000 -0.000000 0.000000 0.000000 -0.000000 0.000000 0.000000 -2.259032 3.037285 0.452130 -0.852641 -2.786272 -0.102404 0.000000 0.000000 0.000000 0.000000 0.000000 0.000000 7.574811 1.507650 0.712805 8.825211 9.668188 -3.040919 0.690765 -8.747472 -1.285075 -9.654736 9.627268 5.112573 0.000000 0.000000 0.000000 0.000000 0.000000 0.000000 -1.147756 -0.515078 -10.670380 2.648152 0.597216 0.471718 -1.716462 -0.010409 0.607776 0.000000 0.000000 0.000000 -0.767900 -0.078965 -10.585004 1.987153 0.017599 0.396634 -0.694010 -4.516951 0.042691 0.000000 0.000000 0.000000
-8.682388 83.574995 356.469369 -0.232578 0.050243 10.609783 0.219352 -0.092206 -10.609504 -0.000000 0.000000 0.000000 1.675240 1.232747 0.328764 0.000000 0.000000 0.000000 -0.000000 0.000000 0.000000 -0.000000 0.000000 0.000000 -2.778228 3.492887 0.561216 -0.803875 -3.916875 -0.262844 0.000000 0.000000 0.000000 0.000000 0.000000 0.000000 11.269887 2.513151 1.014374 12.282615 13.257902 -5.106514 -0.044144 -7.627423 -1.235329 -4.378214 9.417136 6.203942 0.000000 0.000000 0.000000 0.000000 0.000000 0.000000 -1.207033 -0.725257 -10.860918 3.091507 0.865068 0.551970 -2.126851 -0.110310 0.697965 0.000000 0.000000 0.000000 -0.638117 0.073227 -10.710119 2.249729 -0.645733 0.435817 -1.280550 -2.332734 0.366266 0.000000 0.000000 0.000000
-8.862739 83.671224 356.395897 -0.285851 0.125946 10.821355 0.257123 -0.177372 -10.820643 -0.000000 0.000000 0.000000 2.273422 1.665208 0.437563 0.000000 0.000000 0.000000 -0.000000 0.000000 0.000000 -0.000000 0.000000 0.000000 -3.179571 2.857569 0.598827 -0.482371 -5.515348 -0.607665 0.000000 0.000000 0.000000 0.000000 0.000000 0.000000 15.322183 3.656998 1.271764 16.112092 17.169279 -7.836901 -0.828242 -6.295541 -1.378643 -0.319055 11.648331 7.696178 0.000000 0.000000 0.000000 0.000000 0.000000 0.000000 -0.950643 -0.923373 -11.030647 2.832819 0.938886 0.504659 -2.174406 -0.115120 0.915009 0.000000 0.000000 0.000000 -0.465327 0.208441 -10.868940 2.371131 -1.297182 0.450909 -1.885218 0.376656 0.827461 0.000000 0.000000 0.000000
-9.025504 83.753564 356.342956 -0.309610 0.198697 10.986514 0.266071 -0.254057 -10.985387 -0.000000 0.000000 0.000000 3.016094 2.027256 0.565286 0.000000 0.000000 0.000000 -0.000000 0.000000 0.000000 -0.000000 0.000000 0.000000 -3.615699 2.247151 0.639068 -0.749304 -5.817832 -0.734311 0.000000 0.000000 0.000000 0.000000 0.000000 0.000000 19.862228 5.425696 1.481571 22.000051 22.139472 -12.091216 -2.455354 -6.855071 -1.532759 1.529325 10.905332 9.722332 0.000000 0.000000 0.000000 0.000000 0.000000 0.000000 -0.827756 -1.090664 -11.173258 2.754732 1.011886 0.489337 -2.303975 -0.123656 1.145346 0.000000 0.000000 0.000000 0.266071 -0.254057 -10.985387 1.715490 -1.428403 0.432449 -2.487888 3.453088 1.392180 0.000000 0.000000 0.000000
-9.138544 83.826349 356.287341 -0.236494 0.297995 11.172663 0.174274 -0.338170 -11.171534 -0.000000 0.000000 0.000000 3.724126 2.294329 0.682707 0.000000 0.000000 0.000000 0.837627 0.455217 -0.043042 -1.632252 -0.124645 0.117076 -3.226939 1.271378 0.562547 -0.814135 -5.392508 -0.753265 0.000000 0.000000 0.000000 0.000000 0.000000 0.000000 25.632462 9.081354 1.527898 25.696788 24.096674 -15.874049 -0.691016 -3.969488 -2.105082 -0.743503 8.955989 11.950579 0.000000 0.000000 0.000000 0.000000 0.000000 0.000000 -0.853653 -1.263686 -11.346108 2.714702 1.089788 0.480195 -2.457756 -0.142926 1.485023 0.000000 0.000000 0.000000 -0.283347 0.360793 -11.135614 2.363105 -2.244479 0.438357 -2.337354 1.501906 1.459597 0.000000 0.000000 0.000000
-9.217878 83.881503 356.235245 -0.123168 0.408201 11.415309 0.039943 -0.424503 -11.414723 -0.000000 0.000000 0.000000 4.524274 2.611571 0.811445 0.000000 0.000000 0.000000 1.086533 0.702292 -0.084546 -2.136883 -0.292848 0.174580 -3.290570 0.193586 0.518069 0.526141 -5.350109 -0.945294 0.000000 0.000000 0.000000 0.000000 0.000000 0.000000 31.552698 13.254664 1.159419 28.157276 25.506577 -19.348831 3.478665 1.548977 -3.265147 -4.235578 7.034892 13.803703 0.000000 0.000000 0.000000 0.000000 0.000000 0.000000 -1.030383 -1.426114 -11.596892 2.818817 1.223086 0.497881 -2.695176 -0.225327 1.963511 0.000000 0.000000 0.000000 -0.380584 0.309553 -11.369383 2.374839 -2.403942 0.442268 -2.528731 1.581243 1.955763 0.000000 0.000000 0.000000
-9.286708 83.939814 356.206197 -0.005104 0.508390 11.819385 -0.099138 -0.498657 -11.819794 0.516148 0.652747 0.032214 4.901795 2.347483 0.973586 0.000000 0.000000 0.000000 0.843921 0.122022 -0.104873 -2.695848 -0.214318 0.194567 -3.315168 -0.697309 0.475554 1.416129 -3.868488 -0.882961 0.000000 0.000000 0.000000 0.000000 0.000000 0.000000 37.706877 17.976576 0.515121 30.198020 26.689441 -23.049456 8.471016 7.870704 -4.952054 -10.108686 3.382839 13.986360 0.000000 0.000000 0.000000 0.000000 0.000000 0.000000 -1.199881 -1.547091 -12.006938 2.928294 1.365659 0.519063 -3.012562 -0.381776 2.650516 0.000000 0.000000 0.000000 -0.099138 -0.498657 -11.819794 1.880654 -1.713796 0.479248 -2.808842 1.455133 2.660606 0.000000 0.000000 0.000000
-9.333672 84.014569 356.203864 0.138286 0.581861 12.432716 0.452831 0.022356 -12.415328 0.108103 0.106066 0.030746 5.581909 2.651714 1.110621 0.000000 0.000000 0.000000 0.886575 -0.015079 -0.100665 -3.367853 -0.266081 0.228565 -2.743986 -1.195506 0.378393 1.700187 -1.016936 -0.541715 0.000000 0.000000 0.000000 0.000000 0.000000 0.000000 45.197965 24.093391 -1.348517 31.371525 28.105135 -27.154791 7.887951 4.921064 -3.107558 -9.730236 4.561775 14.986089 0.000000 0.000000 0.000000 0.000000 0.000000 0.000000 -1.401726 -1.578579 -12.628384 3.037370 1.494193 0.543337 -3.397562 -0.634083 3.625574 0.000000 0.000000 0.000000 -0.260324 -0.538441 -12.434641 2.038568 -1.645003 0.517257 -3.268742 1.256094 3.636993 0.000000 0.000000 0.000000
-9.353049 84.094929 356.227216 0.297775 0.606173 13.386943 0.457976 0.040534 -13.365749 0.108047 0.124813 0.036937 6.270012 2.997669 1.236561 0.000000 0.000000 0.000000 1.042490 -0.115002 -0.076098 -4.319801 -0.345567 0.262671 -1.884136 -1.418559 0.263053 2.800144 1.583835 -0.348211 0.000000 0.000000 0.000000 0.000000 0.000000 0.000000 53.885947 32.801651 -5.265800 28.370518 26.420326 -28.189312 9.871365 3.987579 -0.768877 -7.595416 3.248239 19.177079 0.000000 0.000000 0.000000 0.000000 0.000000 0.000000 -1.600007 -1.440398 -13.588615 3.134497 1.516136 0.569379 -3.737768 -0.883617 4.524094 0.000000 0.000000 0.000000 -0.430045 -0.520749 -13.390472 2.206618 -1.538473 0.556738 -3.713686 1.024809 4.529799 0.000000 0.000000 0.000000
